<?xml version="1.0" encoding="UTF-8"?>
<svg xmlns="http://www.w3.org/2000/svg" xmlns:xlink="http://www.w3.org/1999/xlink" width="375pt" height="374.999991pt" viewBox="0 0 375 374.999991" version="1.2">
<g id="surface1">
<path style=" stroke:none;fill-rule:nonzero;fill:rgb(100%,8.628845%,8.628845%);fill-opacity:1;" d="M 187.5 37.5 C 104.421875 37.5 37.5 104.421875 37.5 187.5 C 37.5 270.578125 104.421875 337.5 187.5 337.5 C 269.808594 337.5 337.5 270.578125 337.5 187.5 C 337.5 104.421875 269.808594 37.5 187.5 37.5 Z M 187.5 314.421875 C 117.5 314.421875 60.578125 257.5 60.578125 187.5 C 60.578125 117.5 117.5 60.578125 187.5 60.578125 C 257.5 60.578125 314.421875 117.5 314.421875 187.5 C 314.421875 257.5 257.5 314.421875 187.5 314.421875 Z M 187.5 314.421875 "/>
<path style=" stroke:none;fill-rule:nonzero;fill:rgb(100%,100%,100%);fill-opacity:1;" d="M 187.5 60.578125 C 117.5 60.578125 60.578125 117.5 60.578125 187.5 C 60.578125 257.5 117.5 314.421875 187.5 314.421875 C 257.5 314.421875 314.421875 257.5 314.421875 187.5 C 314.421875 117.5 257.5 60.578125 187.5 60.578125 Z M 187.5 60.578125 "/>
</g>
</svg>
