<?xml version="1.0" encoding="UTF-8"?>
<svg xmlns="http://www.w3.org/2000/svg" xmlns:xlink="http://www.w3.org/1999/xlink" width="375pt" height="374.999991pt" viewBox="0 0 375 374.999991" version="1.2">
<defs>
<clipPath id="clip1">
  <path d="M 38 38 L 338 38 L 338 337.5 L 38 337.5 Z M 38 38 "/>
</clipPath>
</defs>
<g id="surface1">
<g clip-path="url(#clip1)" clip-rule="nonzero">
<path style=" stroke:none;fill-rule:nonzero;fill:rgb(0%,34.509277%,86.669922%);fill-opacity:1;" d="M 52.359375 337.488281 C 48.917969 337.488281 45.480469 336.175781 42.855469 333.550781 C 37.605469 328.304688 37.605469 319.792969 42.855469 314.546875 L 314.664062 42.742188 C 319.910156 37.492188 328.417969 37.492188 333.671875 42.742188 C 338.917969 47.988281 338.917969 56.496094 333.671875 61.746094 L 61.859375 333.550781 C 59.238281 336.175781 55.796875 337.488281 52.359375 337.488281 "/>
<path style=" stroke:none;fill-rule:nonzero;fill:rgb(0%,34.509277%,86.669922%);fill-opacity:1;" d="M 324.167969 337.488281 C 320.726562 337.488281 317.289062 336.175781 314.664062 333.550781 L 42.855469 61.746094 C 37.605469 56.496094 37.605469 47.988281 42.855469 42.742188 C 48.105469 37.492188 56.613281 37.492188 61.863281 42.742188 L 333.671875 314.546875 C 338.921875 319.792969 338.921875 328.304688 333.671875 333.550781 C 331.046875 336.175781 327.609375 337.488281 324.167969 337.488281 "/>
</g>
</g>
</svg>
