<?xml version="1.0" standalone="no"?>
<!DOCTYPE svg PUBLIC "-//W3C//DTD SVG 20010904//EN"
 "http://www.w3.org/TR/2001/REC-SVG-20010904/DTD/svg10.dtd">
<svg version="1.0" xmlns="http://www.w3.org/2000/svg"
 width="700.000000pt" height="700.000000pt" viewBox="0 0 700.000000 700.000000"
 preserveAspectRatio="xMidYMid meet">
<metadata>
Created by potrace 1.14, written by Peter Selinger 2001-2017
</metadata>
<g transform="translate(0.000000,700.000000) scale(0.100000,-0.100000)"
fill="#000000" stroke="none">
<path d="M1350 6985 c-700 -96 -1242 -642 -1335 -1343 -22 -170 -22 -4114 0
-4284 55 -417 269 -787 600 -1038 202 -153 397 -239 675 -298 67 -14 301 -16
2140 -19 1523 -3 2094 -1 2175 7 719 76 1285 630 1381 1350 20 156 20 4124 0
4280 -84 630 -531 1142 -1137 1305 -211 57 -143 55 -2362 54 -1619 -1 -2062
-4 -2137 -14z m1557 -25 c18 -10 40 -31 50 -47 17 -26 18 -106 18 -1738 0
-1883 4 -1758 -61 -1921 -170 -429 -713 -629 -1215 -448 -250 90 -442 294
-504 534 -21 83 -22 224 0 315 34 149 139 312 263 411 31 25 107 70 167 100
332 164 684 145 997 -52 21 -13 42 -24 48 -24 7 0 10 456 10 1403 0 1552 -5
1426 64 1468 42 25 121 25 163 -1z m1747 -2714 c255 -66 450 -217 555 -430
169 -340 22 -750 -339 -945 -100 -54 -265 -107 -375 -122 -212 -28 -447 26
-647 149 l-68 41 0 -1397 c0 -1334 -1 -1399 -18 -1431 -51 -95 -213 -94 -264
0 -18 33 -18 100 -16 1759 3 1636 4 1728 22 1790 25 92 97 235 150 302 119
149 307 256 532 303 111 23 344 14 468 -19z m-184 -2254 l0 -49 53 5 c77 6
100 -15 105 -100 4 -57 1 -67 -22 -95 -30 -36 -67 -45 -142 -37 l-54 7 0 158
0 159 30 0 c29 0 30 -1 30 -48z m813 -110 c37 -86 67 -161 67 -165 0 -5 -14
-7 -32 -5 -27 3 -33 9 -47 46 l-15 42 -53 0 c-55 0 -61 6 -43 41 7 12 21 19
40 19 l29 0 -20 48 c-11 26 -23 50 -27 54 -4 4 -31 -50 -59 -120 -49 -123 -52
-127 -83 -130 -18 -2 -31 1 -29 6 2 6 33 80 69 166 l65 156 35 0 35 0 68 -158z
m175 -4 l-3 -163 -27 -3 -28 -3 0 165 0 166 30 0 30 0 -2 -162z m201 135 c-13
-16 -43 -49 -68 -75 l-44 -47 49 -56 c27 -31 62 -72 77 -91 l29 -34 -41 0
c-38 0 -44 4 -105 78 -36 42 -65 86 -66 97 0 11 27 51 61 88 53 59 65 67 97
67 l35 0 -24 -27z m184 -95 c28 -65 55 -114 59 -110 4 4 29 57 55 117 46 105
50 110 81 113 l32 3 0 -166 0 -166 -27 3 -28 3 -5 104 -5 104 -40 -104 c-35
-92 -43 -104 -66 -107 -24 -3 -28 4 -70 110 l-44 113 -3 -113 -3 -113 -27 3
-27 3 -3 163 -3 163 37 -3 c35 -3 36 -4 87 -120z m-1097 -50 l27 -83 18 43
c10 23 24 60 30 82 11 36 15 40 45 40 l32 0 -45 -112 c-59 -148 -77 -182 -109
-207 l-27 -21 -14 20 c-14 19 -12 23 11 45 14 13 26 30 26 37 -1 7 -20 64 -44
126 l-43 112 32 0 c33 0 34 -1 61 -82z"/>
<path d="M4477 1893 c-4 -3 -7 -32 -7 -64 0 -43 4 -58 16 -63 49 -19 84 10 84
70 0 22 -5 45 -12 52 -13 13 -70 17 -81 5z"/>
</g>
</svg>
